<svg width="406" height="407" viewBox="0 0 406 407" fill="none" xmlns="http://www.w3.org/2000/svg">
<path d="M0 1.39996C18.7 -0.400037 37.4 -2.10004 51.2 18.4C64.9 38.9 73.7 81.6 79.7 109.5C85.8 137.4 89.2 150.4 115.6 128C142 105.6 191.4 47.7 202.8 55.7C214.2 63.8 187.6 137.7 179.6 173C171.6 208.2 182.3 204.8 215 192C247.6 179.3 302.1 157.3 308.6 170.2C315.1 183.1 273.5 230.8 264.1 254.5C254.8 278.2 277.6 277.8 297.5 283.8C317.4 289.7 334.4 301.9 340 315.9C345.6 329.9 339.9 345.6 349 361.1C358 376.5 381.8 391.8 405.6 407H0V1.39996Z" fill="#256A70"/>
<path d="M0 204.2C9.4 203.3 18.7 202.4 25.6 212.7C32.4 222.9 36.8 244.3 39.9 258.2C42.9 272.2 44.6 278.7 57.8 267.5C71 256.3 95.7 227.3 101.4 231.4C107.1 235.4 93.8 272.4 89.8 290C85.8 307.6 91.2 305.9 107.5 299.5C123.8 293.2 151.1 282.2 154.3 288.6C157.5 295 136.8 318.9 132.1 330.7C127.4 342.6 138.8 342.4 148.7 345.4C158.7 348.4 167.2 354.5 170 361.4C172.8 368.4 170 376.3 174.5 384C179 391.8 190.9 399.4 202.8 407H0V204.2Z" fill="#4FBDBA"/>
</svg>
