<svg width="406" height="406" viewBox="0 0 406 406" fill="none" xmlns="http://www.w3.org/2000/svg">
<path d="M406 405.6C398.1 333.6 390.1 261.5 371.3 263.7C352.4 265.9 322.7 342.4 315.7 337.1C308.7 331.8 324.4 244.8 305.4 243C286.3 241.1 232.4 324.5 208 342.9C183.6 361.4 188.8 315.1 184.4 288.8C180 262.5 166 256.3 167 239C168 221.7 184 193.3 155.3 192.4C126.6 191.4 53 217.9 54.7 202.8C56.4 187.8 133.3 131.3 153.8 104.5C174.2 77.7 138.2 80.7 129.7 74C121.3 67.4 140.4 51.1 123.4 37.2C106.5 23.3 53.4 11.6 0.400024 0H406V405.6Z" fill="#256A70"/>
<path d="M406 202.8C402 166.8 398.1 130.8 388.6 131.9C379.2 133 364.3 171.2 360.8 168.6C357.3 165.9 365.2 122.4 355.7 121.5C346.1 120.6 319.2 162.2 307 171.5C294.8 180.7 297.4 157.5 295.2 144.4C293 131.2 286 128.1 286.5 119.5C287 110.9 295 96.7 280.7 96.2C266.3 95.7 229.5 108.9 230.4 101.4C231.2 93.9 269.7 65.6 279.9 52.2C290.1 38.8 272.1 40.3 267.9 37C263.6 33.7 273.2 25.6 264.7 18.6C256.2 11.6 229.7 5.8 203.2 0H406V202.8Z" fill="#4FBDBA"/>
</svg>
